<?xml version="1.0" standalone="no"?><!DOCTYPE svg PUBLIC "-//W3C//DTD SVG 1.1//EN" "http://www.w3.org/Graphics/SVG/1.1/DTD/svg11.dtd"><svg t="1705066152188" class="icon" viewBox="0 0 1024 1024" version="1.1" xmlns="http://www.w3.org/2000/svg" p-id="4257" xmlns:xlink="http://www.w3.org/1999/xlink" width="200" height="200"><path d="M764.59 600.43a123 123 0 0 0-20.2-13.43 252.68 252.68 0 0 0-64.61-21.16A284.78 284.78 0 0 0 609.1 560a19 19 0 0 0-10.1 2 1370.82 1370.82 0 0 1-10.13-240.6c-26.24 7.7-48.45 19.25-72.68 27a2987.81 2987.81 0 0 1 48.45 354.09h8.08a240.73 240.73 0 0 0 52.51-3.86 408.79 408.79 0 0 0 66.62-13.46 153.19 153.19 0 0 0 58.56-30.8 44.64 44.64 0 0 0 20.2-26.93 18.72 18.72 0 0 0-4.66-26 16.07 16.07 0 0 0-1.42-0.89z m-123.2 65.42c-4.06-23.1-6.06-44.26-10.11-65.42a708.55 708.55 0 0 1 68.65 23.1 635.24 635.24 0 0 1-58.56 42.34zM310.33 598.5a138.55 138.55 0 0 0-22.19-13.5 249.44 249.44 0 0 0-64.62-19.25 258.93 258.93 0 0 0-66.64-3.75 19 19 0 0 0-10.08 1.91 1393.14 1393.14 0 0 1-12.13-242.51c-24.23 5.79-48.44 19.25-70.67 27a2990.19 2990.19 0 0 1 48.46 354.09h8.07a421.61 421.61 0 0 0 98.94-11.56 214.22 214.22 0 0 0 74.7-32.71 67.83 67.83 0 0 0 24.25-28.87 23.94 23.94 0 0 0-8.09-30.78z m-123.2 67.35c-4-23.1-6-44.26-10.09-65.42a387.47 387.47 0 0 1 66.64 23.1 420.19 420.19 0 0 1-56.55 42.34z m248.37-73.21c-2-17.3-2-32.71-4.06-50a594.65 594.65 0 0 1-4-59.65c-2-17.32-2-36.57-4-53.89-2-19.23-2-38.48-4-57.73 0-5.78 0-5.78-6.07-5.78h-2a79.36 79.36 0 0 0-22.37 1.92c-6.05 0-12.11 1.93-18.18 1.93 18.18 96.22 28.28 194.35 38.37 292.5 12.13 0 24.25 1.91 36.36 1.91v-7.69a180.75 180.75 0 0 1-10.11-63.5z m454.31 15.41a520.58 520.58 0 0 1-4-55.79c-2-19.25-4-40.41-6-59.66s-2-36.57-4-55.8c-2-23.1-4-44.26-4-67.35 0-5.78 0-5.78-6-5.78H847.4a145.22 145.22 0 0 0-26.23 3.84c18.16 96.22 28.27 194.37 38.36 292.5 12.1 0 24.24 1.93 36.35 1.93V660z m-62.58-40.4a401 401 0 0 0-8.08-48.1c0-3.84-2-3.84-4-3.84h-20.22c-8.08 1.92-16.07 1.92-26.23 3.84 10.08 52 22.19 103.91 32.3 155.87 12.1-1.93 24.23-1.93 36.35-3.84-2-13.48-2-25-4.05-36.56-2.08-21.11-4.11-44.21-6.11-67.3z m-454.33 0c-2-15.39-4-30.79-6.06-48.1 0-3.84-2-3.84-6-3.84-10.11 0-20.19 1.92-28.28 1.92a49.46 49.46 0 0 0-16.07 3.84c10.1 52 22.21 103.92 32.32 155.88 12.1-1.91 24.23-1.91 36.33-3.84v-1.91c-2-13.48-2-28.87-4-42.35-4-21.16-6.06-42.34-8.07-61.58z m129.23-40.41c0-5.78 0-5.78-6.07-5.78a339.39 339.39 0 0 0-44.42 0c6.07 53.88 10.1 105.84 16.16 157.8h36.33v-5.78c0-48 0-96.14-2-146.17z m456.35 94.37c0-30.79-2-61.59-2-94.3 0-5.78 0-5.78-6.07-5.78a339.39 339.39 0 0 0-44.42 0c6.07 53.88 10.1 105.84 16.16 157.8h36.35v-3.84a239.11 239.11 0 0 0-0.02-53.88zM332.53 458.05a224.63 224.63 0 0 1 4 36.57l2 1.91a72.57 72.57 0 0 0 20.19-1.91c0-7.71-2-13.48-2-19.25-2-13.46-2-25-4-38.48l-2-1.93a43.32 43.32 0 0 0-22.21 0v3.84a36.45 36.45 0 0 1 4 19.23zM795 496.53a72.57 72.57 0 0 0 20.19-1.91c0-7.71-2-13.48-2-21.18-2-11.55-2-25-4-36.56a1.91 1.91 0 0 0-1.91-1.92h-0.11a43.54 43.54 0 0 0-22.21 0v1.93a564 564 0 0 0 8.04 57.73 2 2 0 0 0 2 1.93z m-315 1.93c0 1.93 0 1.93 2 1.93h20.2v-53.91c0-3.84 0-3.84-4-5.77a58.37 58.37 0 0 1-18.2-1.92z m456.33 3.85h20.19v-57.74l-2-1.93c-8.07 0-14.14-1.91-22.21-1.91v1.91a548 548 0 0 0 2 57.73 1.94 1.94 0 0 0 2 1.93h0.07z m-607.78-3.85c2 0 2-1.91 2-3.84a35.5 35.5 0 0 0-2-15.39c-2-11.55-4-25-6.05-36.57 0-1.91 0-3.84-4-1.91-6.08 0-12.13 1.91-18.18 1.91 4 19.25 8.07 40.41 12.1 59.67a49.53 49.53 0 0 1 16.06-3.89z m452.3 0a4.24 4.24 0 0 0 4-3.84c-2-11.54-2-21.16-4-32.71a65.78 65.78 0 0 0-4-19.25c0-1.91 0-3.84-2-3.84-6 0-12.1 1.93-20.19 1.93 4 19.23 8.07 40.41 12.1 59.65a35.73 35.73 0 0 0 14.14-1.92z m143.36 3.85l2-1.92v-53.91c-2-1.91-2-3.84-4-3.84a72.17 72.17 0 0 0-20.21 1.93c2 19.23 2 40.41 4 59.66a58.58 58.58 0 0 1 18.07-1.93z m-454.31 0l2-1.92v-53.91l-2-1.91a72.26 72.26 0 0 0-20.2 1.91c2 19.25 2 40.41 4 59.67a25.21 25.21 0 0 1 16-3.85z" fill="#474645" p-id="4258"></path></svg>