<?xml version="1.0" standalone="no"?><!DOCTYPE svg PUBLIC "-//W3C//DTD SVG 1.1//EN" "http://www.w3.org/Graphics/SVG/1.1/DTD/svg11.dtd"><svg t="1705066253860" class="icon" viewBox="0 0 1024 1024" version="1.1" xmlns="http://www.w3.org/2000/svg" p-id="6224" xmlns:xlink="http://www.w3.org/1999/xlink" width="200" height="200"><path d="M903.509333 256.682667L657.578667 10.752A36.494222 36.494222 0 0 0 631.751111 0H146.261333C126.008889 0 109.681778 16.355556 109.681778 36.579556v950.840888c0 20.224 16.355556 36.579556 36.579555 36.579556h731.420445c20.224 0 36.579556-16.355556 36.579555-36.579556V282.624c0-9.699556-3.896889-19.057778-10.752-25.941333z m-73.585777 42.752h-215.096889V84.337778l215.096889 215.096889z m2.048 642.275555H192V82.289778h345.144889v246.840889a48.014222 48.014222 0 0 0 48.014222 48.014222h246.840889v564.565333zM417.109333 476.785778a13.624889 13.624889 0 0 0-12.572444-8.220445h-39.992889a13.767111 13.767111 0 0 0-13.710222 13.710223v310.869333c0 7.537778 6.172444 13.710222 13.710222 13.710222h30.976a13.767111 13.767111 0 0 0 13.710222-13.710222v-201.016889l76.344889 171.633778a13.738667 13.738667 0 0 0 12.572445 8.135111h27.534222a13.937778 13.937778 0 0 0 12.572444-8.135111l76.344889-172.088889v201.472c0 7.537778 6.172444 13.710222 13.710222 13.710222h31.089778a13.767111 13.767111 0 0 0 13.710222-13.710222V482.275556a13.767111 13.767111 0 0 0-13.710222-13.710223h-39.651555a13.624889 13.624889 0 0 0-12.572445 8.248889l-94.976 218.282667-95.089778-218.311111z" fill="#000000" fill-opacity=".65" p-id="6225"></path></svg>